PathFileType	4	(X/Y/Z)	C:/Users/opensim2020/Desktop/walking_exp_matlab/subject02_walking07_straight_01.trc	
DataRate	CameraRate	NumFrames	NumMarkers	Units	OrigDataRate	OrigDataStartFrame	OrigNumFrames	
100.00	100.00	8	50	mm	100.00	670	176	
Frame#	Time	LFHD			RFHD			LBHD			RBHD			C7			T10			CLAV			STRN			RBAK			LSHO			LUPA			LELB			LFRM			LWRA			LWRB			LFIN			RSHO			RUPA			RELB			RFRM			RWRA			RWRB			RFIN			LASI			RASI			LPSI			RPSI			LTHI			LKNE			LTIB			LANK			LHEE			LTOE			RTHI			RKNE			RTIB			RANK			RHEE			RTOE			*39			*40			*41			*42			*43			*44			*45			*46			*47			*48			*49			
		X1	Y1	Z1	X2	Y2	Z2	X3	Y3	Z3	X4	Y4	Z4	X5	Y5	Z5	X6	Y6	Z6	X7	Y7	Z7	X8	Y8	Z8	X9	Y9	Z9	X10	Y10	Z10	X11	Y11	Z11	X12	Y12	Z12	X13	Y13	Z13	X14	Y14	Z14	X15	Y15	Z15	X16	Y16	Z16	X17	Y17	Z17	X18	Y18	Z18	X19	Y19	Z19	X20	Y20	Z20	X21	Y21	Z21	X22	Y22	Z22	X23	Y23	Z23	X24	Y24	Z24	X25	Y25	Z25	X26	Y26	Z26	X27	Y27	Z27	X28	Y28	Z28	X29	Y29	Z29	X30	Y30	Z30	X31	Y31	Z31	X32	Y32	Z32	X33	Y33	Z33	X34	Y34	Z34	X35	Y35	Z35	X36	Y36	Z36	X37	Y37	Z37	X38	Y38	Z38	X39	Y39	Z39	X40	Y40	Z40	X41	Y41	Z41	X42	Y42	Z42	X43	Y43	Z43	X44	Y44	Z44	X45	Y45	Z45	X46	Y46	Z46	X47	Y47	Z47	X48	Y48	Z48	X49	Y49	Z49	X50	Y50	Z50	

23	0.220	1422.48938	-761.90765	1741.60840	1564.56201	-768.41168	1716.75171	1403.04370	-882.37469	1654.09546	1542.73767	-901.68835	1626.62805	1472.31567	-932.74738	1515.93384	1480.23206	-990.34625	1242.62390	1455.40186	-796.14941	1447.01196	1458.95044	-747.27747	1272.87463	1537.16455	-990.14691	1342.83289	1288.60254	-867.63837	1492.92944	1205.70825	-890.03912	1293.56287	1196.50854	-900.88959	1152.97278	1176.86218	-905.61597	1023.06732	1201.91919	-863.58441	889.90387	1168.40747	-907.46246	900.33197	1163.38843	-899.47491	833.79272	1655.66553	-847.35590	1477.58508	1738.96985	-887.07599	1289.85156	1753.86523	-886.45032	1143.24939	1776.27161	-870.48944	1025.58655	1759.18323	-836.82330	893.24854	1792.18433	-882.88641	896.45587	1795.32568	-854.38208	829.31171	1332.46851	-784.52185	967.27173	1583.16040	-754.97205	967.82910	1431.34485	-980.67816	1022.94739	1547.39087	-972.75836	1030.71753	1277.78296	-857.54840	654.17719	1294.49719	-883.18530	469.79764	1312.16125	-1036.33057	365.38651	1350.34583	-1175.41113	196.87976	1412.05615	-1204.89282	192.71240	1308.29834	-1107.71240	62.87289	1660.63403	-785.29047	672.38501	1615.31140	-762.70135	464.33911	1623.23254	-795.61639	277.34241	1584.65381	-815.65900	86.01311	1528.90967	-851.69489	31.98242	1596.77783	-663.96100	34.60127	1508.58777	-874.77325	1792.00244	-3360.17700	2845.20996	1034.16638																											 
24	0.230	1423.54114	-753.11823	1742.86438	1565.63184	-759.39642	1718.37354	1404.44812	-873.48468	1655.14661	1544.18555	-892.65833	1628.06909	1474.25879	-923.50323	1517.37012	1482.95032	-981.75854	1244.28296	1456.87708	-787.30835	1448.17334	1460.73914	-738.53546	1273.98450	1540.03271	-981.49304	1344.88086	1290.24890	-859.47162	1493.84485	1207.69922	-885.07428	1294.74121	1198.79980	-897.59039	1154.40918	1178.55493	-905.54028	1024.97009	1202.87976	-867.26306	890.40588	1169.30408	-910.68695	902.38049	1164.44128	-904.99670	835.33582	1657.41333	-837.23090	1479.24170	1741.41711	-875.46887	1291.26379	1756.62964	-873.79999	1144.71863	1778.51624	-856.07941	1027.07507	1760.92737	-820.65582	895.32251	1794.32483	-866.49701	897.80029	1797.25110	-836.74084	831.20801	1333.52930	-776.76404	968.74854	1584.76794	-747.37823	967.99738	1433.72375	-972.56390	1024.33472	1549.50989	-964.96228	1032.01709	1278.68616	-843.66748	655.89331	1295.83630	-864.93054	471.96960	1315.73181	-1016.99353	367.21671	1354.45020	-1155.29919	198.10239	1416.03796	-1184.54224	192.35051	1309.52661	-1085.84937	66.29288	1662.27600	-779.86407	672.40070	1616.44763	-760.75641	464.01422	1623.65625	-795.62177	277.38959	1584.53162	-815.81494	86.12319	1529.21216	-851.97644	32.33204	1596.84485	-663.96771	34.51403	1509.60852	-865.91028	1793.37073	-3360.33374	2845.24707	1033.99524																											 
25	0.240	1424.42786	-744.40527	1744.16064	1566.58105	-750.41022	1719.84631	1405.69971	-864.72205	1656.27893	1545.49854	-883.57178	1629.37671	1476.20691	-914.57092	1518.76868	1485.62024	-973.24207	1245.95837	1458.22424	-778.45148	1449.28198	1462.25012	-730.03040	1275.07080	1542.97034	-972.30847	1346.80029	1291.87329	-851.34778	1494.73950	1209.48279	-879.97064	1296.01379	1200.76672	-895.00372	1156.18469	1180.32922	-905.12329	1026.90344	1204.16882	-869.87030	891.45288	1170.22498	-913.33148	904.58386	1165.57080	-909.71576	837.11548	1658.91357	-827.18658	1480.89124	1743.80945	-863.97559	1292.92883	1759.40332	-861.05865	1146.22131	1780.93811	-841.42725	1028.76538	1762.78943	-804.00494	897.73712	1796.43970	-849.86108	899.35638	1799.14172	-818.73138	833.37531	1334.37390	-769.17255	969.88989	1586.95825	-738.73322	968.99597	1436.04260	-964.60883	1025.68823	1551.56445	-957.12030	1033.11206	1279.27136	-830.05988	658.38544	1297.20874	-846.64459	474.08582	1318.82690	-997.77838	368.75995	1358.06116	-1134.33411	198.13777	1419.93481	-1163.55347	191.70262	1311.76819	-1062.57764	68.46545	1663.54370	-775.13464	672.43256	1617.25623	-759.16846	463.54041	1623.96716	-795.77527	277.42682	1584.35498	-815.85950	86.09494	1529.10291	-851.99646	32.35770	1596.90210	-663.97534	34.54552	1510.57520	-857.09241	1794.79492	-3357.12622	2845.83179	1034.06873																											 
26	0.250	1425.41956	-735.44110	1745.40308	1567.38110	-741.41742	1721.22485	1406.82544	-855.91827	1657.27380	1546.75452	-874.56775	1630.68311	1478.04199	-905.71216	1520.03430	1488.18689	-964.79449	1247.49866	1459.52283	-769.62402	1450.34741	1463.43506	-721.94629	1275.89587	1545.60315	-963.67242	1348.60376	1293.43433	-843.24237	1495.61658	1211.54102	-874.77930	1297.54016	1202.73987	-892.34106	1158.10876	1181.79456	-905.13300	1029.30273	1205.42688	-871.67505	892.94556	1171.14185	-915.69452	906.89734	1166.59253	-913.57172	839.39160	1660.22119	-817.35022	1482.55933	1745.95020	-852.30652	1294.48547	1762.09937	-848.12665	1147.77563	1783.08533	-826.58759	1030.51538	1764.41309	-787.30780	900.18829	1798.42542	-832.89270	900.96747	1800.91711	-800.46991	835.69360	1335.45361	-761.60858	971.24182	1588.60559	-731.22736	969.86841	1438.24451	-956.73846	1027.06580	1553.60205	-949.40533	1034.04688	1280.04761	-816.26703	660.51141	1298.31274	-828.76685	476.24973	1321.68567	-978.75360	369.88831	1361.37952	-1112.77795	197.00060	1423.24133	-1141.96240	189.87672	1314.53699	-1038.01709	69.63784	1664.58533	-771.53851	672.48669	1618.35461	-757.34076	463.48654	1624.35608	-795.68549	277.47314	1584.26221	-815.83154	86.13795	1529.02686	-851.98315	32.39603	1596.91370	-663.82745	34.28925	1511.43640	-848.21204	1795.88110	-3357.11987	2845.71509	1034.15405																											 
27	0.260	1425.88416	-726.88867	1746.33997	1568.10254	-732.38171	1722.53809	1407.87354	-847.28882	1658.28687	1547.89063	-865.63422	1631.95801	1479.80139	-896.96265	1521.25183	1490.56824	-956.37604	1248.98193	1460.65613	-760.93695	1451.28333	1464.87073	-713.42273	1276.89490	1548.40979	-954.81744	1350.58044	1295.11096	-835.63135	1496.63965	1213.23669	-869.87970	1298.74841	1204.64075	-889.72119	1160.03589	1182.65198	-905.78357	1032.04077	1205.72192	-874.56000	894.54120	1172.27441	-918.12000	909.62927	1167.62122	-917.63574	841.75897	1661.53223	-807.29810	1484.24329	1748.13513	-840.72528	1296.16687	1764.76160	-835.20752	1149.42371	1785.17285	-811.68280	1032.34277	1765.75317	-770.65448	902.73901	1800.35754	-815.72809	902.72791	1802.51038	-781.98578	838.08069	1336.52014	-753.74103	972.74609	1590.43665	-723.42175	971.15631	1440.32336	-948.94800	1028.38867	1555.46082	-941.57208	1034.78906	1280.85046	-802.94781	662.84900	1299.27686	-811.48578	478.34933	1324.19543	-959.65186	370.46194	1364.29956	-1090.45093	194.86096	1426.29700	-1119.93481	187.35860	1317.83716	-1012.16498	69.81777	1664.85864	-769.06067	671.87097	1618.93701	-755.78412	463.11862	1624.79932	-795.26648	277.50409	1584.33228	-815.79303	86.31345	1528.95215	-851.99567	32.50620	1596.88306	-663.73248	34.16232	1512.16309	-839.27271	1796.93750	-3360.24829	2845.15503	1034.07556																											 
28	0.270	1426.34753	-718.25195	1747.27124	1568.67285	-723.40997	1723.78516	1408.88794	-838.62445	1659.21484	1548.93323	-856.70929	1633.20496	1481.47034	-888.26971	1522.43555	1492.85474	-948.09387	1250.38098	1461.79517	-752.27795	1452.23022	1466.01331	-705.33099	1277.72302	1550.52295	-945.80927	1351.79810	1296.60205	-827.80743	1497.52917	1214.92346	-864.68860	1300.17822	1206.63330	-886.62701	1161.90442	1184.44836	-904.79663	1034.07520	1207.00293	-876.25562	895.83557	1173.30469	-920.06232	912.17084	1168.71960	-920.47382	844.15314	1662.58118	-797.63495	1485.89539	1750.21216	-829.23236	1297.90515	1767.29675	-822.04510	1151.08057	1787.16187	-796.54047	1034.28857	1767.26392	-753.42303	905.57336	1802.14563	-798.41656	904.58679	1803.97839	-763.36792	840.62091	1337.84595	-745.70569	974.33875	1592.09875	-715.91510	972.44318	1442.13464	-941.14233	1029.62781	1557.19250	-933.77679	1035.45105	1281.67126	-789.77209	665.05475	1300.27869	-794.43359	480.36011	1326.28345	-940.45764	370.32178	1367.08960	-1067.53699	191.67210	1428.88684	-1096.97827	183.41124	1321.25488	-985.35040	69.25186	1665.45935	-765.71179	671.89594	1619.97461	-753.73035	463.17932	1625.35547	-794.34967	277.50677	1584.24255	-815.63110	86.32938	1528.95093	-851.97876	32.56941	1596.91260	-663.65393	34.02663	1512.83813	-830.39832	1798.21387	-3357.27783	2845.94067	1033.95557																											 
29	0.280	1426.84375	-709.53241	1748.07971	1569.17041	-714.43390	1724.93140	1409.75171	-830.06018	1660.10291	1549.89746	-847.84045	1634.37061	1483.06104	-879.54926	1523.57129	1494.96289	-939.82318	1251.63293	1462.81775	-743.74927	1453.10254	1467.13037	-697.26215	1278.51929	1553.35840	-937.52112	1353.87598	1298.06116	-820.16803	1498.34668	1216.73584	-860.07349	1301.56726	1208.28345	-884.08844	1164.00085	1186.48328	-904.01868	1036.21790	1207.31140	-878.44232	897.87286	1174.20471	-922.01007	914.85870	1169.60474	-923.19122	846.83881	1663.78967	-787.73560	1487.53613	1752.21960	-817.62817	1299.47791	1769.53857	-808.58917	1152.66125	1789.32947	-781.25726	1036.34509	1768.58630	-736.26306	908.37421	1803.87524	-780.90314	906.52783	1805.42480	-744.58698	843.38129	1339.38867	-737.61255	976.08978	1593.81738	-708.43774	973.75800	1443.69824	-933.25818	1030.85205	1558.71985	-925.92877	1036.02979	1282.62976	-776.74493	667.41339	1301.26758	-777.67957	482.43976	1328.02539	-921.16504	369.38721	1369.75623	-1044.01465	187.64003	1431.60339	-1073.61951	178.94467	1324.43701	-957.82751	68.11449	1666.10742	-762.11816	671.60236	1620.41089	-751.88031	462.78119	1625.84705	-793.05939	277.45932	1584.24292	-815.36981	86.42771	1529.02979	-852.03723	32.65197	1596.99011	-663.60693	33.85627	1513.36255	-821.49933	1799.16162	-3357.34033	2845.70776	1034.05554																											 
30	0.290	1427.03796	-700.91040	1748.74072	1569.49426	-705.48035	1725.99744	1410.54797	-821.71649	1660.90051	1550.82605	-838.95642	1635.52551	1484.57654	-870.91809	1524.71875	1496.92017	-931.58740	1252.85205	1463.74939	-735.30853	1453.95728	1468.26282	-689.14154	1279.34253	1555.42761	-928.69128	1355.16028	1299.40442	-812.59363	1499.10278	1218.37781	-854.90759	1302.82861	1209.96924	-881.25549	1165.97046	1187.57214	-903.84290	1038.56763	1207.73425	-879.51947	899.71674	1175.39514	-923.35522	917.44086	1170.41724	-925.27612	849.49426	1664.73633	-778.09900	1489.07959	1754.12866	-806.08105	1301.10669	1771.91650	-795.32147	1154.34424	1790.72534	-765.89899	1038.25439	1769.57959	-719.21619	911.18756	1805.45752	-763.25677	908.55627	1806.72131	-725.48340	846.38062	1341.17346	-729.29816	978.00629	1595.94104	-700.62122	975.08813	1444.90259	-925.20654	1031.96899	1560.04578	-918.11212	1036.53345	1283.40723	-764.05060	669.66992	1302.32690	-761.26202	484.43680	1329.14612	-901.81000	367.66580	1372.32349	-1019.82959	182.76254	1433.99902	-1049.12671	172.89502	1327.46570	-929.35950	66.57047	1666.94739	-758.27216	671.47858	1621.35498	-749.62982	462.55307	1626.29358	-791.61426	277.37201	1584.30566	-815.19110	86.47443	1528.92871	-852.07861	32.71872	1597.09363	-663.55304	33.75831	1513.77026	-812.52350	1800.20654	-3360.33496	2845.24805	1033.97119																											 
